<mxfile host="app.diagrams.net" modified="2023-06-08T07:38:56.685Z" agent="Mozilla/5.0 (Windows NT 10.0; Win64; x64) AppleWebKit/537.36 (KHTML, like Gecko) Chrome/114.0.0.0 Safari/537.36" etag="GHdOa2gTxBte1Hz9b5C5" version="21.3.7" type="device">
  <diagram name="Page-1" id="ab86ihdkl9T9i4w5Esb1">
    <mxGraphModel dx="1354" dy="645" grid="1" gridSize="10" guides="1" tooltips="1" connect="1" arrows="1" fold="1" page="1" pageScale="1" pageWidth="850" pageHeight="1100" math="0" shadow="0">
      <root>
        <mxCell id="0" />
        <mxCell id="1" parent="0" />
        <mxCell id="D7h-UtNIkkFITFaaLUy6-12" value="" style="group" vertex="1" connectable="0" parent="1">
          <mxGeometry x="370" y="100" width="290" height="230" as="geometry" />
        </mxCell>
        <mxCell id="D7h-UtNIkkFITFaaLUy6-1" value="" style="html=1;points=[];perimeter=orthogonalPerimeter;outlineConnect=0;targetShapes=umlLifeline;portConstraint=eastwest;newEdgeStyle={&quot;edgeStyle&quot;:&quot;elbowEdgeStyle&quot;,&quot;elbow&quot;:&quot;vertical&quot;,&quot;curved&quot;:0,&quot;rounded&quot;:0};" vertex="1" parent="D7h-UtNIkkFITFaaLUy6-12">
          <mxGeometry x="40" width="10" height="190" as="geometry" />
        </mxCell>
        <mxCell id="D7h-UtNIkkFITFaaLUy6-5" value="" style="html=1;points=[];perimeter=orthogonalPerimeter;outlineConnect=0;targetShapes=umlLifeline;portConstraint=eastwest;newEdgeStyle={&quot;edgeStyle&quot;:&quot;elbowEdgeStyle&quot;,&quot;elbow&quot;:&quot;vertical&quot;,&quot;curved&quot;:0,&quot;rounded&quot;:0};" vertex="1" parent="D7h-UtNIkkFITFaaLUy6-12">
          <mxGeometry x="255" width="10" height="190" as="geometry" />
        </mxCell>
        <mxCell id="D7h-UtNIkkFITFaaLUy6-8" value="MqttTransportService" style="text;whiteSpace=wrap;html=1;" vertex="1" parent="D7h-UtNIkkFITFaaLUy6-12">
          <mxGeometry y="200" width="120" height="30" as="geometry" />
        </mxCell>
        <mxCell id="D7h-UtNIkkFITFaaLUy6-10" value="init()" style="text;html=1;strokeColor=none;fillColor=none;align=center;verticalAlign=middle;whiteSpace=wrap;rounded=0;" vertex="1" parent="D7h-UtNIkkFITFaaLUy6-12">
          <mxGeometry x="230" y="200" width="60" height="30" as="geometry" />
        </mxCell>
        <mxCell id="D7h-UtNIkkFITFaaLUy6-11" value="" style="endArrow=classic;html=1;rounded=0;" edge="1" parent="D7h-UtNIkkFITFaaLUy6-12" target="D7h-UtNIkkFITFaaLUy6-5">
          <mxGeometry width="50" height="50" relative="1" as="geometry">
            <mxPoint x="50" y="60" as="sourcePoint" />
            <mxPoint x="100" y="10" as="targetPoint" />
          </mxGeometry>
        </mxCell>
        <mxCell id="D7h-UtNIkkFITFaaLUy6-19" value="Calls the init () function" style="text;html=1;strokeColor=none;fillColor=none;align=center;verticalAlign=middle;whiteSpace=wrap;rounded=0;" vertex="1" parent="D7h-UtNIkkFITFaaLUy6-12">
          <mxGeometry x="90" y="30" width="130" height="30" as="geometry" />
        </mxCell>
        <mxCell id="D7h-UtNIkkFITFaaLUy6-20" value="MQTT connection gets started" style="text;html=1;strokeColor=none;fillColor=none;align=center;verticalAlign=middle;whiteSpace=wrap;rounded=0;" vertex="1" parent="D7h-UtNIkkFITFaaLUy6-12">
          <mxGeometry x="70" y="120" width="170" height="30" as="geometry" />
        </mxCell>
        <mxCell id="D7h-UtNIkkFITFaaLUy6-40" value="" style="endArrow=classic;html=1;rounded=0;" edge="1" parent="D7h-UtNIkkFITFaaLUy6-12" target="D7h-UtNIkkFITFaaLUy6-26">
          <mxGeometry width="50" height="50" relative="1" as="geometry">
            <mxPoint x="255" y="150" as="sourcePoint" />
            <mxPoint x="305" y="100" as="targetPoint" />
          </mxGeometry>
        </mxCell>
        <mxCell id="D7h-UtNIkkFITFaaLUy6-17" value="" style="endArrow=none;dashed=1;html=1;dashPattern=1 3;strokeWidth=2;rounded=0;" edge="1" parent="1" source="D7h-UtNIkkFITFaaLUy6-35" target="D7h-UtNIkkFITFaaLUy6-26">
          <mxGeometry width="50" height="50" relative="1" as="geometry">
            <mxPoint x="130" y="179.5" as="sourcePoint" />
            <mxPoint x="270" y="179.5" as="targetPoint" />
          </mxGeometry>
        </mxCell>
        <mxCell id="D7h-UtNIkkFITFaaLUy6-26" value="" style="html=1;points=[];perimeter=orthogonalPerimeter;outlineConnect=0;targetShapes=umlLifeline;portConstraint=eastwest;newEdgeStyle={&quot;edgeStyle&quot;:&quot;elbowEdgeStyle&quot;,&quot;elbow&quot;:&quot;vertical&quot;,&quot;curved&quot;:0,&quot;rounded&quot;:0};" vertex="1" parent="1">
          <mxGeometry x="285" y="90" width="10" height="460" as="geometry" />
        </mxCell>
        <mxCell id="D7h-UtNIkkFITFaaLUy6-27" value="trasnport" style="text;whiteSpace=wrap;html=1;" vertex="1" parent="1">
          <mxGeometry x="255" y="550" width="70" height="20" as="geometry" />
        </mxCell>
        <mxCell id="D7h-UtNIkkFITFaaLUy6-31" value="" style="endArrow=classic;html=1;rounded=0;" edge="1" parent="1" target="D7h-UtNIkkFITFaaLUy6-1">
          <mxGeometry width="50" height="50" relative="1" as="geometry">
            <mxPoint x="295" y="160" as="sourcePoint" />
            <mxPoint x="345" y="110" as="targetPoint" />
          </mxGeometry>
        </mxCell>
        <mxCell id="D7h-UtNIkkFITFaaLUy6-36" value="" style="endArrow=none;dashed=1;html=1;dashPattern=1 3;strokeWidth=2;rounded=0;" edge="1" parent="1" target="D7h-UtNIkkFITFaaLUy6-35">
          <mxGeometry width="50" height="50" relative="1" as="geometry">
            <mxPoint x="130" y="179.5" as="sourcePoint" />
            <mxPoint x="285" y="180" as="targetPoint" />
          </mxGeometry>
        </mxCell>
        <mxCell id="D7h-UtNIkkFITFaaLUy6-35" value="MQTT Connection and message processing." style="rounded=1;whiteSpace=wrap;html=1;" vertex="1" parent="1">
          <mxGeometry x="70" y="175" width="130" height="135" as="geometry" />
        </mxCell>
        <mxCell id="D7h-UtNIkkFITFaaLUy6-43" value="" style="html=1;points=[];perimeter=orthogonalPerimeter;outlineConnect=0;targetShapes=umlLifeline;portConstraint=eastwest;newEdgeStyle={&quot;edgeStyle&quot;:&quot;elbowEdgeStyle&quot;,&quot;elbow&quot;:&quot;vertical&quot;,&quot;curved&quot;:0,&quot;rounded&quot;:0};" vertex="1" parent="1">
          <mxGeometry x="730" y="210" width="10" height="370" as="geometry" />
        </mxCell>
        <mxCell id="D7h-UtNIkkFITFaaLUy6-44" value="MqttTransportHandler" style="text;whiteSpace=wrap;html=1;" vertex="1" parent="1">
          <mxGeometry x="680" y="600" width="130" height="20" as="geometry" />
        </mxCell>
        <mxCell id="D7h-UtNIkkFITFaaLUy6-45" value="" style="html=1;points=[];perimeter=orthogonalPerimeter;outlineConnect=0;targetShapes=umlLifeline;portConstraint=eastwest;newEdgeStyle={&quot;edgeStyle&quot;:&quot;elbowEdgeStyle&quot;,&quot;elbow&quot;:&quot;vertical&quot;,&quot;curved&quot;:0,&quot;rounded&quot;:0};" vertex="1" parent="1">
          <mxGeometry x="890" y="215" width="10" height="190" as="geometry" />
        </mxCell>
        <mxCell id="D7h-UtNIkkFITFaaLUy6-46" value="channelReader()" style="text;whiteSpace=wrap;html=1;" vertex="1" parent="1">
          <mxGeometry x="850" y="410" width="100" height="30" as="geometry" />
        </mxCell>
        <mxCell id="D7h-UtNIkkFITFaaLUy6-48" value="&lt;div style=&quot;&quot;&gt;&lt;span style=&quot;background-color: initial;&quot;&gt;ChannelRead method first process our message when we send it to mqtt.&lt;/span&gt;&lt;/div&gt;" style="text;whiteSpace=wrap;html=1;align=left;" vertex="1" parent="1">
          <mxGeometry x="750" y="240" width="130" height="70" as="geometry" />
        </mxCell>
        <mxCell id="D7h-UtNIkkFITFaaLUy6-49" value="processMqttMsg()" style="text;whiteSpace=wrap;html=1;" vertex="1" parent="1">
          <mxGeometry x="980" y="460" width="100" height="20" as="geometry" />
        </mxCell>
        <mxCell id="D7h-UtNIkkFITFaaLUy6-50" value="" style="html=1;points=[];perimeter=orthogonalPerimeter;outlineConnect=0;targetShapes=umlLifeline;portConstraint=eastwest;newEdgeStyle={&quot;edgeStyle&quot;:&quot;elbowEdgeStyle&quot;,&quot;elbow&quot;:&quot;vertical&quot;,&quot;curved&quot;:0,&quot;rounded&quot;:0};" vertex="1" parent="1">
          <mxGeometry x="1030" y="260" width="10" height="200" as="geometry" />
        </mxCell>
        <mxCell id="D7h-UtNIkkFITFaaLUy6-51" value="" style="endArrow=classic;html=1;rounded=0;exitX=1;exitY=0.622;exitDx=0;exitDy=0;exitPerimeter=0;" edge="1" parent="1" source="D7h-UtNIkkFITFaaLUy6-43" target="D7h-UtNIkkFITFaaLUy6-50">
          <mxGeometry width="50" height="50" relative="1" as="geometry">
            <mxPoint x="750" y="450" as="sourcePoint" />
            <mxPoint x="1050" y="354.44" as="targetPoint" />
          </mxGeometry>
        </mxCell>
        <mxCell id="D7h-UtNIkkFITFaaLUy6-52" value="&lt;sub&gt;method process the message recevied.&lt;/sub&gt;" style="text;whiteSpace=wrap;html=1;" vertex="1" parent="1">
          <mxGeometry x="960" y="380" width="70" height="30" as="geometry" />
        </mxCell>
        <mxCell id="D7h-UtNIkkFITFaaLUy6-53" value="processDevicePublish ()" style="text;whiteSpace=wrap;html=1;" vertex="1" parent="1">
          <mxGeometry x="1125" y="480" width="145" height="30" as="geometry" />
        </mxCell>
        <mxCell id="D7h-UtNIkkFITFaaLUy6-54" value="" style="html=1;points=[];perimeter=orthogonalPerimeter;outlineConnect=0;targetShapes=umlLifeline;portConstraint=eastwest;newEdgeStyle={&quot;edgeStyle&quot;:&quot;elbowEdgeStyle&quot;,&quot;elbow&quot;:&quot;vertical&quot;,&quot;curved&quot;:0,&quot;rounded&quot;:0};" vertex="1" parent="1">
          <mxGeometry x="1210" y="290" width="10" height="190" as="geometry" />
        </mxCell>
        <mxCell id="D7h-UtNIkkFITFaaLUy6-55" value="" style="endArrow=classic;html=1;rounded=0;exitX=1;exitY=0.789;exitDx=0;exitDy=0;exitPerimeter=0;" edge="1" parent="1" target="D7h-UtNIkkFITFaaLUy6-54">
          <mxGeometry width="50" height="50" relative="1" as="geometry">
            <mxPoint x="740" y="384.44" as="sourcePoint" />
            <mxPoint x="1030" y="384.44" as="targetPoint" />
          </mxGeometry>
        </mxCell>
        <mxCell id="D7h-UtNIkkFITFaaLUy6-56" value="&lt;span style=&quot;margin: 0px; padding: 0px; user-select: text; -webkit-user-drag: none; -webkit-tap-highlight-color: transparent;&quot; class=&quot;NormalTextRun SCXW252357553 BCX0&quot;&gt;Process publish method set the topic name in the&lt;/span&gt;" style="text;whiteSpace=wrap;html=1;align=left;" vertex="1" parent="1">
          <mxGeometry x="1050" y="330" width="150" height="50" as="geometry" />
        </mxCell>
        <mxCell id="D7h-UtNIkkFITFaaLUy6-57" value="postTelemetryMsg" style="text;whiteSpace=wrap;html=1;" vertex="1" parent="1">
          <mxGeometry x="1330" y="530" width="130" height="40" as="geometry" />
        </mxCell>
        <mxCell id="D7h-UtNIkkFITFaaLUy6-58" value="" style="html=1;points=[];perimeter=orthogonalPerimeter;outlineConnect=0;targetShapes=umlLifeline;portConstraint=eastwest;newEdgeStyle={&quot;edgeStyle&quot;:&quot;elbowEdgeStyle&quot;,&quot;elbow&quot;:&quot;vertical&quot;,&quot;curved&quot;:0,&quot;rounded&quot;:0};" vertex="1" parent="1">
          <mxGeometry x="1370" y="340" width="10" height="190" as="geometry" />
        </mxCell>
        <mxCell id="D7h-UtNIkkFITFaaLUy6-60" value="" style="endArrow=classic;html=1;rounded=0;exitX=1;exitY=0.789;exitDx=0;exitDy=0;exitPerimeter=0;" edge="1" parent="1" target="D7h-UtNIkkFITFaaLUy6-58">
          <mxGeometry width="50" height="50" relative="1" as="geometry">
            <mxPoint x="740" y="510.44" as="sourcePoint" />
            <mxPoint x="1210" y="510" as="targetPoint" />
          </mxGeometry>
        </mxCell>
        <mxCell id="D7h-UtNIkkFITFaaLUy6-61" value="stores our payload in key and value pair" style="text;whiteSpace=wrap;html=1;" vertex="1" parent="1">
          <mxGeometry x="1280" y="460" width="90" height="40" as="geometry" />
        </mxCell>
        <mxCell id="D7h-UtNIkkFITFaaLUy6-62" value="" style="endArrow=classic;html=1;rounded=0;" edge="1" parent="1" target="D7h-UtNIkkFITFaaLUy6-43">
          <mxGeometry width="50" height="50" relative="1" as="geometry">
            <mxPoint x="295" y="440" as="sourcePoint" />
            <mxPoint x="345" y="390" as="targetPoint" />
          </mxGeometry>
        </mxCell>
        <mxCell id="D7h-UtNIkkFITFaaLUy6-64" value="" style="endArrow=classic;html=1;rounded=0;" edge="1" parent="1">
          <mxGeometry width="50" height="50" relative="1" as="geometry">
            <mxPoint x="740" y="309.44" as="sourcePoint" />
            <mxPoint x="890" y="309.44" as="targetPoint" />
          </mxGeometry>
        </mxCell>
        <mxCell id="D7h-UtNIkkFITFaaLUy6-68" value="" style="group" vertex="1" connectable="0" parent="1">
          <mxGeometry x="440" width="480" height="70" as="geometry" />
        </mxCell>
        <mxCell id="D7h-UtNIkkFITFaaLUy6-2" value="Service used to connect&amp;nbsp; to the MQTT server -" style="text;whiteSpace=wrap;html=1;" vertex="1" parent="D7h-UtNIkkFITFaaLUy6-68">
          <mxGeometry width="360" height="40" as="geometry" />
        </mxCell>
        <mxCell id="D7h-UtNIkkFITFaaLUy6-3" value="Path in thingsboard source code - common--&amp;gt;transport--&amp;gt;mqtt--&amp;gt;MqttTransportService." style="text;whiteSpace=wrap;html=1;" vertex="1" parent="D7h-UtNIkkFITFaaLUy6-68">
          <mxGeometry y="30" width="480" height="40" as="geometry" />
        </mxCell>
      </root>
    </mxGraphModel>
  </diagram>
</mxfile>
